<?xml version="1.0" standalone="no"?>
<!DOCTYPE svg PUBLIC "-//W3C//DTD SVG 20010904//EN"
 "http://www.w3.org/TR/2001/REC-SVG-20010904/DTD/svg10.dtd">
<svg version="1.0" xmlns="http://www.w3.org/2000/svg"
 width="1806.000000pt" height="706.000000pt" viewBox="0 0 1806.000000 706.000000"
 preserveAspectRatio="xMidYMid meet">
<metadata>
Created by potrace 1.16, written by Peter Selinger 2001-2019
</metadata>
<g transform="translate(0.000000,706.000000) scale(0.100000,-0.100000)"
fill="#000000" stroke="none">
<path d="M0 3530 l0 -3530 9030 0 9030 0 0 3530 0 3530 -9030 0 -9030 0 0
-3530z m8700 2790 c208 -16 276 -26 425 -62 22 -5 60 -13 85 -18 39 -7 204
-63 293 -98 74 -30 189 -86 260 -125 26 -15 68 -39 95 -53 184 -101 498 -387
630 -574 70 -98 128 -186 142 -215 8 -16 32 -58 53 -92 20 -35 37 -66 37 -71
0 -5 11 -30 24 -58 79 -166 163 -401 149 -415 -5 -5 -268 -8 -588 -7 l-578 3
-13 60 c-7 33 -13 89 -13 125 -1 36 -8 99 -16 140 -9 41 -18 95 -21 120 -6 59
-44 230 -55 252 -5 10 -9 27 -9 39 0 28 -52 181 -100 292 -76 177 -187 326
-315 426 -65 50 -70 53 -195 105 -209 87 -544 101 -795 34 -42 -11 -59 -17
-115 -41 -19 -8 -52 -22 -73 -31 -21 -9 -57 -30 -80 -47 -78 -59 -221 -215
-252 -273 -80 -151 -77 -145 -135 -286 -10 -25 -23 -65 -30 -90 -7 -25 -16
-53 -21 -62 -5 -10 -9 -29 -9 -43 0 -14 -4 -33 -9 -43 -11 -20 -40 -160 -51
-247 -5 -33 -13 -85 -20 -115 -6 -30 -15 -108 -19 -172 -5 -67 -14 -124 -21
-133 -11 -13 -89 -15 -596 -15 -461 0 -584 3 -584 13 1 17 45 145 53 154 4 3
7 17 7 29 0 13 5 26 10 29 6 3 10 13 10 20 0 13 59 146 95 215 65 126 91 170
142 247 134 199 261 346 397 460 44 37 83 70 86 73 5 5 62 47 173 128 71 53
337 202 359 202 4 0 34 13 67 29 32 15 72 32 88 35 15 4 42 13 58 20 45 19
134 48 174 57 20 4 74 17 121 29 186 46 459 66 680 50z m-5333 -142 c13 -29
44 -117 50 -143 3 -11 8 -29 13 -40 4 -11 13 -36 20 -55 7 -19 16 -44 20 -55
4 -11 18 -54 31 -95 12 -41 26 -79 30 -85 3 -5 9 -21 12 -35 3 -14 33 -104 67
-200 34 -96 64 -184 67 -195 2 -11 8 -29 13 -40 4 -11 18 -51 30 -90 24 -74
37 -109 51 -137 5 -10 9 -27 9 -37 0 -11 4 -22 9 -25 5 -3 11 -18 14 -33 4
-24 21 -78 47 -148 5 -11 13 -36 20 -55 7 -19 15 -44 20 -55 17 -45 30 -92 30
-108 0 -16 -43 -17 -564 -17 -439 0 -566 3 -573 13 -12 15 -27 58 -93 267 -29
91 -65 201 -81 246 -16 44 -29 84 -29 89 0 16 -45 125 -51 125 -4 0 -9 -8 -12
-17 -3 -10 -24 -70 -47 -133 -23 -63 -54 -153 -70 -200 -16 -47 -47 -137 -70
-200 -23 -63 -44 -126 -47 -140 -10 -44 -22 -50 -94 -50 -67 0 -69 1 -69 25 0
14 8 44 18 68 22 49 47 121 69 192 8 28 22 66 30 85 9 19 19 49 24 65 7 29 21
69 109 315 23 63 44 124 47 135 2 11 8 29 13 40 4 11 13 36 20 55 7 19 16 44
20 55 5 11 11 29 14 40 10 41 83 246 89 252 4 3 7 17 7 29 0 13 4 25 8 28 4 3
14 28 22 56 8 28 18 53 22 56 4 3 8 13 8 23 0 10 9 40 19 67 11 27 22 57 25
67 5 16 30 17 339 17 l334 0 10 -22z m9828 4 c17 -11 45 -60 45 -76 0 -9 9
-31 20 -51 11 -20 20 -44 20 -53 0 -10 4 -22 9 -28 5 -5 16 -29 24 -54 18 -55
45 -125 62 -165 7 -16 22 -55 33 -85 11 -30 32 -89 47 -130 15 -41 31 -79 36
-85 5 -5 9 -17 9 -27 0 -9 9 -33 20 -53 11 -20 20 -44 20 -53 0 -10 4 -22 9
-27 5 -6 19 -39 31 -75 12 -36 30 -84 41 -107 10 -24 19 -47 19 -53 0 -6 8
-29 19 -53 10 -23 29 -69 41 -102 12 -33 26 -70 31 -82 5 -13 13 -33 18 -45 5
-13 19 -50 31 -83 22 -61 30 -80 48 -127 6 -14 8 -29 5 -32 -8 -7 -1140 -8
-1168 0 -20 5 -45 45 -45 71 0 7 -4 21 -9 31 -9 17 -75 186 -113 292 -11 30
-28 75 -38 100 -10 25 -28 72 -40 105 -12 33 -28 74 -35 90 -14 31 -53 137
-62 168 -3 10 -13 17 -22 15 -14 -3 -16 -45 -16 -438 l0 -435 -82 -3 -83 -3 0
528 c0 689 -10 779 -91 862 -23 23 -58 51 -78 61 -20 11 -43 24 -51 30 -8 5
-46 23 -85 40 -100 45 -118 55 -127 79 -5 16 -2 27 12 41 20 20 36 20 753 20
402 0 737 -4 742 -8z m4386 -2 c12 -7 19 -21 19 -40 0 -22 -7 -32 -32 -44 -17
-9 -35 -16 -41 -16 -5 0 -47 -19 -93 -41 -96 -47 -150 -105 -187 -200 -21 -52
-22 -73 -27 -679 l-5 -625 -580 0 -580 0 -2 460 c-1 253 -3 468 -3 478 0 9 -4
17 -8 17 -16 0 -57 -95 -108 -250 -16 -47 -30 -82 -45 -112 -5 -10 -9 -25 -9
-33 0 -9 -9 -35 -20 -57 -11 -23 -20 -47 -20 -54 0 -6 -9 -33 -19 -60 -18 -47
-36 -94 -82 -221 -11 -32 -25 -66 -30 -75 -5 -10 -9 -26 -9 -36 0 -9 -7 -28
-16 -40 -14 -20 -23 -22 -114 -22 -54 0 -101 4 -104 8 -5 8 12 58 104 312 23
63 45 126 50 140 4 14 23 63 40 110 18 47 34 94 37 105 5 21 13 44 31 85 6 14
18 45 26 70 17 52 41 119 87 240 17 47 34 96 36 110 3 14 9 30 13 35 4 6 22
53 39 105 18 52 36 104 40 115 29 69 51 130 51 142 0 15 29 64 45 75 16 12
1493 10 1516 -2z m-15988 -2272 c74 -22 136 -108 91 -125 -12 -4 -27 7 -51 35
l-35 42 -71 0 c-74 -1 -95 -9 -115 -46 -9 -18 -8 -26 7 -46 18 -23 42 -33 144
-59 79 -21 128 -52 144 -92 14 -34 13 -40 -7 -81 -29 -62 -62 -76 -170 -76
-74 0 -92 3 -120 23 -39 26 -75 81 -66 102 9 23 45 18 55 -7 16 -43 79 -78
139 -78 35 0 94 22 109 40 22 26 11 70 -22 87 -56 30 -65 33 -89 33 -14 0 -28
5 -31 10 -3 6 -17 10 -31 10 -27 0 -57 15 -91 44 -18 16 -23 30 -23 71 0 43 4
55 28 77 49 46 126 60 205 36z m920 -1 c97 -34 151 -117 149 -227 -1 -94 -35
-151 -117 -201 -39 -24 -167 -26 -213 -4 -49 25 -98 88 -116 148 -20 69 -20
71 4 137 21 59 96 140 130 140 11 0 22 5 25 10 9 14 93 12 138 -3z m1005 -19
l3 -27 -133 -3 -133 -3 0 -75 0 -75 120 -5 c98 -4 120 -8 120 -20 0 -12 -22
-16 -120 -20 l-120 -5 -3 -97 c-3 -97 -3 -98 -27 -98 l-25 0 0 223 c0 123 3
227 7 231 4 3 75 5 157 4 l151 -3 3 -27z m840 0 l3 -28 -75 0 -76 0 -2 -197
c-3 -196 -3 -198 -25 -201 l-23 -3 -2 198 -3 198 -77 3 c-74 3 -78 4 -78 26 0
12 3 26 7 30 4 3 84 5 177 4 l171 -3 3 -27z m528 2 c7 -14 22 -59 35 -100 12
-41 31 -104 42 -140 11 -36 21 -71 23 -78 7 -24 22 -3 39 56 9 31 21 66 25 77
4 11 18 54 30 95 28 92 45 120 70 120 23 0 36 -27 80 -170 17 -58 36 -113 41
-122 5 -10 9 -27 9 -38 0 -22 28 -28 34 -7 2 6 9 32 16 57 23 83 33 115 40
135 4 11 16 47 26 80 15 47 24 61 42 63 18 3 22 -1 22 -22 0 -14 -4 -35 -9
-48 -5 -13 -19 -57 -31 -98 -12 -41 -26 -84 -30 -95 -6 -17 -42 -134 -56 -183
-2 -8 -16 -12 -36 -10 -27 3 -33 9 -46 48 -8 25 -18 54 -22 65 -4 11 -23 67
-41 125 -18 58 -34 107 -36 110 -7 8 -21 -22 -38 -75 -8 -27 -29 -95 -46 -150
-17 -55 -33 -106 -35 -112 -2 -7 -18 -13 -37 -13 -31 0 -33 3 -46 48 -7 26
-16 56 -21 67 -4 11 -13 40 -20 65 -7 25 -16 54 -20 65 -30 77 -61 196 -53
208 9 15 37 2 49 -23z m1299 0 c13 -22 25 -50 71 -157 8 -18 21 -50 30 -70 9
-21 19 -47 24 -58 4 -11 17 -40 29 -63 29 -61 28 -84 -5 -80 -22 2 -30 13 -51
66 l-25 62 -108 0 c-120 0 -113 3 -146 -75 -20 -49 -39 -63 -70 -51 -12 5 -11
10 4 38 10 18 29 60 42 93 13 33 34 85 48 115 13 30 30 70 38 88 38 87 48 107
56 113 20 13 50 3 63 -21z m958 14 c68 -23 97 -62 97 -131 0 -55 -27 -113 -52
-113 -6 0 -20 -8 -30 -17 -18 -16 -18 -17 1 -37 31 -34 91 -133 84 -140 -4 -3
-16 -6 -28 -6 -21 0 -65 56 -104 133 -17 33 -38 39 -116 35 l-60 -3 -3 -82
c-3 -81 -3 -83 -27 -83 l-25 0 0 230 0 230 108 0 c73 0 124 -5 155 -16z m961
10 c9 -3 16 -17 16 -30 l0 -24 -140 0 -140 0 0 -70 0 -70 114 0 c118 0 146 -9
132 -45 -4 -12 -28 -15 -126 -15 l-120 0 0 -75 0 -74 138 -3 c134 -3 137 -4
140 -25 l3 -23 -170 0 -171 0 0 223 c0 123 3 227 7 230 8 9 296 9 317 1z
m1380 -9 c105 -32 156 -104 156 -220 0 -104 -39 -169 -130 -213 -17 -9 -65
-12 -145 -10 l-120 3 -3 219 c-2 169 1 221 10 228 22 13 180 9 232 -7z m1016
0 c7 -8 10 -22 6 -30 -4 -12 -29 -15 -140 -15 l-134 0 -4 -54 c-5 -90 -12 -85
125 -88 l122 -3 0 -25 0 -25 -123 -3 -123 -3 3 -72 3 -72 132 -3 c108 -2 132
-5 137 -18 3 -9 4 -20 0 -25 -3 -5 -79 -9 -170 -9 l-164 0 0 224 c0 170 3 226
13 229 6 3 78 6 158 6 118 1 149 -2 159 -14z m538 3 c6 -7 27 -56 47 -108 21
-52 46 -114 56 -137 10 -24 19 -49 19 -57 0 -8 5 -18 10 -21 6 -3 10 -15 10
-26 0 -29 16 -23 33 14 29 62 107 261 107 274 0 7 5 13 10 13 6 0 10 8 10 18
0 23 19 42 42 42 20 0 24 -28 9 -58 -9 -17 -22 -50 -40 -94 -11 -30 -50 -124
-69 -168 -8 -19 -23 -57 -33 -85 -16 -45 -20 -50 -51 -53 -29 -2 -35 1 -46 30
-8 18 -18 44 -24 58 -6 14 -14 34 -18 45 -5 11 -17 41 -29 67 -12 26 -21 51
-21 56 0 5 -9 27 -20 50 -11 22 -20 45 -20 50 0 6 -7 23 -15 38 -20 40 -19 64
4 64 10 0 23 -6 29 -12z m1202 -3 c7 -8 10 -21 7 -30 -5 -12 -33 -15 -144 -17
l-138 -3 2 -65 1 -65 104 -2 c134 -4 150 -8 146 -36 -3 -21 -8 -22 -128 -27
l-125 -5 0 -60 c0 -33 4 -66 9 -72 6 -9 45 -13 136 -13 108 0 129 -3 134 -16
3 -9 4 -20 0 -25 -3 -5 -79 -9 -170 -9 l-164 0 0 223 c0 123 3 227 7 230 3 4
75 7 158 7 123 0 155 -3 165 -15z m590 -190 l5 -200 117 -3 c97 -2 117 -5 122
-19 4 -9 3 -20 -2 -25 -5 -5 -73 -7 -151 -6 l-143 3 2 219 c0 121 3 223 6 228
3 5 13 8 22 6 15 -3 18 -27 22 -203z m1040 189 c94 -31 150 -112 150 -219 0
-94 -43 -165 -127 -212 -38 -22 -166 -16 -210 8 -78 44 -132 145 -121 227 12
89 91 192 146 192 12 0 24 5 27 10 9 15 80 12 135 -6z m924 4 c63 -18 92 -43
110 -95 18 -53 9 -104 -28 -144 -35 -39 -66 -49 -170 -51 l-99 -3 -1 -75 c-1
-73 -2 -75 -26 -75 l-25 0 -3 215 c-1 118 0 220 2 227 7 17 182 18 240 1z
m964 -20 l3 -28 -140 0 -141 0 0 -70 0 -70 113 0 c119 0 141 -6 135 -36 -3
-17 -15 -19 -126 -22 l-123 -3 3 -72 3 -72 135 -5 c131 -5 135 -6 138 -28 l3
-22 -168 2 -168 3 -3 219 c-2 169 1 221 10 228 7 4 83 7 168 5 l155 -2 3 -27z
m787 19 c87 -27 115 -62 115 -144 -1 -53 -9 -68 -60 -103 -19 -13 -37 -25 -38
-26 -2 -1 19 -36 47 -78 28 -41 51 -80 51 -86 0 -5 -13 -10 -28 -10 -21 0 -32
7 -43 28 -8 15 -18 32 -22 37 -4 6 -21 31 -37 58 l-30 47 -75 0 -75 0 -1 -62
c-2 -104 -2 -103 -31 -106 l-28 -3 0 224 c0 123 3 227 7 230 11 12 206 7 248
-6z m-14848 -1005 c-3 -16 -7 -35 -9 -43 -3 -12 110 -14 815 -17 l819 -2 -4
42 -3 43 577 3 c566 2 577 2 588 -18 6 -11 24 -61 40 -111 17 -50 36 -105 44
-123 7 -17 24 -65 36 -106 13 -41 27 -79 32 -85 4 -5 8 -16 8 -26 0 -9 8 -38
19 -65 10 -27 26 -74 36 -104 10 -30 23 -68 30 -85 7 -16 18 -50 25 -75 8 -25
17 -49 22 -55 4 -5 8 -19 8 -31 0 -13 4 -25 9 -28 5 -3 11 -18 14 -33 2 -16
12 -50 22 -78 10 -27 27 -75 37 -105 11 -30 24 -63 29 -72 5 -10 9 -24 9 -32
0 -7 8 -35 19 -62 10 -27 24 -67 30 -89 22 -72 80 -188 132 -266 36 -53 86
-99 137 -126 93 -49 171 -86 205 -97 12 -4 17 -16 17 -40 0 -30 -3 -34 -32
-39 -51 -8 -1955 -3 -1964 5 -4 4 -3 22 2 40 8 25 18 35 54 48 116 43 144 56
180 87 76 63 111 175 90 281 -22 108 -70 270 -111 376 -10 27 -19 53 -19 59 0
6 -13 47 -29 91 -15 45 -43 128 -61 186 -18 58 -40 128 -50 155 -9 28 -23 68
-29 90 -7 22 -21 63 -31 90 -10 28 -23 70 -31 95 -7 25 -19 57 -26 73 l-14 27
-868 0 -869 0 -16 -25 c-9 -13 -16 -33 -16 -43 0 -10 -3 -21 -6 -25 -6 -6 -99
-270 -114 -322 -8 -31 -37 -115 -51 -150 -4 -11 -18 -51 -30 -90 -12 -38 -25
-79 -29 -90 -32 -83 -44 -114 -50 -140 -7 -27 -29 -94 -50 -150 -64 -171 -82
-326 -46 -399 22 -43 81 -85 186 -130 159 -69 150 -63 150 -100 0 -30 -3 -34
-32 -40 -18 -3 -260 -5 -538 -3 l-505 2 -3 37 c-3 40 3 46 103 78 40 13 143
58 203 89 60 31 139 105 186 173 25 36 46 71 46 76 0 6 9 27 19 49 23 44 81
204 81 221 0 7 4 20 9 30 15 29 28 65 42 112 7 25 15 50 19 55 4 6 12 30 20
55 7 25 21 64 31 87 11 24 19 50 19 58 0 8 4 23 10 33 5 9 21 51 34 92 14 41
44 127 66 190 23 63 44 124 47 135 2 11 8 29 13 40 15 36 71 198 98 280 9 28
21 53 27 57 5 4 41 8 79 8 l69 0 -6 -28z m5647 6 c3 -13 10 -88 16 -168 19
-265 29 -374 40 -430 7 -30 16 -84 21 -120 4 -36 13 -83 18 -105 5 -22 14 -60
19 -85 6 -25 20 -79 32 -120 12 -41 25 -91 29 -110 5 -19 16 -53 26 -75 10
-22 21 -49 25 -60 26 -69 79 -166 133 -245 37 -55 148 -176 178 -195 9 -5 43
-28 75 -51 68 -47 184 -94 301 -124 68 -17 113 -20 283 -20 238 0 323 15 490
87 44 18 42 17 131 79 189 131 329 348 417 649 56 190 67 236 81 345 5 36 14
88 21 115 6 28 15 97 20 155 5 58 13 150 19 205 6 55 14 143 19 195 l7 95 604
3 c333 1 608 -1 612 -5 4 -5 -2 -48 -13 -98 -11 -49 -23 -108 -28 -130 -7 -39
-25 -93 -61 -189 -11 -27 -19 -55 -19 -62 0 -8 -4 -22 -8 -32 -40 -81 -52
-108 -52 -114 0 -13 -89 -193 -124 -252 -20 -32 -36 -60 -36 -63 0 -5 -75
-116 -110 -163 -14 -19 -43 -57 -64 -85 -43 -58 -175 -195 -266 -279 -98 -88
-327 -256 -349 -256 -6 0 -11 -3 -11 -7 0 -9 9 -4 -205 -112 -88 -45 -165 -81
-172 -81 -7 0 -21 -4 -31 -9 -34 -18 -125 -51 -141 -51 -9 0 -36 -8 -61 -17
-25 -9 -63 -19 -85 -24 -22 -4 -69 -14 -105 -22 -36 -9 -95 -21 -132 -27 -86
-15 -554 -17 -628 -2 -30 6 -86 16 -125 22 -174 28 -436 98 -540 145 -16 7
-57 25 -90 39 -33 15 -78 36 -100 48 -136 72 -196 106 -221 125 -16 12 -49 36
-74 55 -25 19 -61 45 -81 58 -38 26 -162 134 -214 185 -63 63 -189 206 -221
252 -92 131 -134 193 -134 199 0 3 -13 25 -28 48 -62 91 -232 477 -232 525 0
10 -4 21 -8 26 -13 15 -61 208 -78 313 l-7 42 617 0 616 0 4 -22z m4956 -748
c6 -866 2 -821 88 -939 53 -71 81 -87 282 -153 41 -13 45 -18 48 -50 l3 -35
-50 -7 c-68 -9 -923 -6 -957 3 -40 10 -39 46 1 77 18 13 38 24 46 24 8 0 50
14 94 31 66 26 89 41 132 87 49 53 79 101 101 167 26 74 32 249 32 883 0 361
0 663 0 670 0 10 21 12 88 10 l87 -3 5 -765z m2165 740 c8 -16 15 -34 15 -40
0 -5 8 -29 19 -53 29 -65 61 -149 61 -158 0 -5 8 -28 19 -52 31 -71 61 -149
61 -161 0 -14 38 -38 49 -31 5 2 11 15 14 27 2 13 19 61 36 108 61 161 73 195
78 215 3 11 14 39 24 62 10 24 19 50 19 60 0 9 7 25 17 35 13 15 32 18 114 18
54 0 100 -4 104 -10 3 -5 1 -17 -5 -27 -13 -23 -80 -210 -87 -243 -3 -14 -9
-29 -13 -35 -4 -5 -15 -30 -23 -55 -9 -25 -30 -83 -47 -130 -17 -47 -40 -110
-50 -140 -10 -30 -33 -93 -50 -140 -18 -47 -35 -96 -40 -110 -5 -14 -23 -63
-40 -110 -18 -47 -35 -96 -37 -110 -3 -14 -9 -29 -13 -35 -5 -5 -19 -44 -33
-85 -49 -144 -80 -225 -88 -234 -5 -6 -9 -22 -9 -36 0 -14 -4 -30 -9 -35 -8
-10 -58 -142 -68 -180 -2 -11 -8 -29 -13 -40 -4 -11 -18 -47 -30 -80 -12 -33
-26 -72 -32 -86 -12 -34 -48 -40 -225 -38 -164 1 -185 6 -197 45 -5 16 -17 48
-27 71 -11 24 -19 47 -19 53 0 5 -9 29 -19 52 -11 24 -29 70 -41 103 -12 33
-26 70 -31 83 -5 12 -13 33 -19 47 -5 14 -14 35 -19 48 -17 41 -43 112 -58
157 -8 25 -19 49 -24 55 -5 5 -9 17 -9 27 0 10 -4 26 -10 36 -5 9 -28 67 -50
127 -23 61 -45 119 -50 130 -5 11 -18 46 -29 78 -49 134 -64 173 -72 181 -5 6
-9 19 -9 31 0 12 -4 25 -9 31 -5 5 -14 27 -21 49 -7 22 -16 45 -20 50 -3 6
-12 30 -20 55 -7 25 -17 49 -22 55 -4 5 -8 15 -8 22 0 8 -9 33 -20 55 -11 23
-20 46 -20 50 0 5 -9 28 -20 50 -11 23 -20 48 -20 55 0 8 -9 33 -20 55 -11 23
-20 50 -20 59 0 10 -5 21 -10 24 -35 22 47 25 590 25 l589 0 16 -30z m2755
-755 c3 -429 9 -791 14 -805 32 -97 93 -161 210 -219 46 -23 89 -41 95 -41 6
0 23 -7 36 -16 34 -22 36 -79 3 -87 -33 -8 -1866 -9 -1905 -1 -26 5 -33 11
-33 31 0 26 44 73 68 73 33 0 182 82 224 122 24 24 55 66 69 93 l24 50 3 780
c1 429 5 786 7 793 4 10 127 12 592 10 l588 -3 5 -780z"/>
<path d="M2354 3846 c-38 -21 -52 -36 -73 -81 -27 -57 -27 -103 0 -160 22 -47
51 -72 107 -95 27 -11 43 -11 87 0 76 18 105 48 134 139 21 64 -24 163 -89
196 -34 18 -135 18 -166 1z"/>
<path d="M6133 3818 c-6 -13 -15 -34 -21 -48 -5 -14 -19 -46 -31 -72 -12 -26
-21 -50 -21 -53 0 -3 39 -5 86 -5 84 0 85 0 78 23 -7 24 -40 102 -55 129 -5
10 -9 25 -9 33 0 22 -15 18 -27 -7z"/>
<path d="M6937 3853 c-4 -3 -7 -44 -7 -90 l0 -83 90 0 c62 0 100 5 120 15 57
30 66 88 21 135 -27 29 -31 30 -123 30 -52 0 -98 -3 -101 -7z"/>
<path d="M9302 3688 l3 -173 91 0 c55 0 101 5 115 13 54 29 86 115 73 199 -5
36 -16 56 -50 90 l-43 43 -96 0 -95 0 2 -172z"/>
<path d="M13715 3848 c-63 -34 -95 -92 -95 -168 0 -82 48 -145 129 -170 39
-12 49 -12 99 6 39 13 64 30 86 57 28 35 30 44 29 113 -1 64 -5 79 -27 108
-14 19 -40 42 -57 50 -37 18 -134 21 -164 4z"/>
<path d="M14608 3774 c-2 -60 1 -89 9 -96 8 -6 50 -9 104 -6 85 4 94 6 115 32
34 39 32 89 -5 127 -28 28 -33 29 -124 29 l-96 0 -3 -86z"/>
<path d="M16349 3856 c-2 -2 -3 -43 -1 -90 l3 -86 92 0 c104 0 156 21 158 62
3 53 -4 74 -29 95 -24 20 -38 23 -123 23 -53 0 -98 -2 -100 -4z"/>
</g>
</svg>
